<svg xmlns="http://www.w3.org/2000/svg" xmlns:xlink="http://www.w3.org/1999/xlink" width="70" height="70" version="1.1" viewBox="0 0 70 70"><title>Shape + Group</title><desc>Created with Sketch.</desc><g id="SPD3.0" fill="none" fill-rule="evenodd" stroke="none" stroke-width="1"><g id="001-FTUX" transform="translate(-877.000000, -253.000000)"><g id="Steps" transform="translate(323.000000, 244.000000)"><g id="processor"><g transform="translate(554.000000, 9.000000)"><g id="Shape-+-Group"><path id="Shape" fill="#E4E8DC" d="M35,0 C15.6734375,0 0,15.6679687 0,35 C0,46.9492187 5.98828125,57.4984375 15.1320313,63.8148437 C15.1757812,63.8454687 15.2211719,63.8728125 15.2649219,63.9028906 C15.3075781,63.8132031 15.3573438,63.7235156 15.4054688,63.6338281 L15.4054688,59.2435156 L44.8453906,59.2435156 L44.8453906,59.425625 L54.7804688,59.425625 L54.7804688,63.1695312 C54.875625,63.3423437 54.9609375,63.520625 55.0347656,63.7021875 L55.0539063,63.6896094 C59.3517969,60.6763281 62.9398438,56.7284375 65.5216406,52.1341406 C66.1232031,51.0732031 66.6646094,49.9794531 67.1507813,48.8528906 C68.9833594,44.6036719 70,39.921875 70,35 C70,15.6679687 54.3320312,0 35,0 L35,0 Z"/><g id="Group" transform="translate(15.000000, 16.333333)"><path id="Shape" fill="#686868" d="M16.0630469,1.07916667 C15.3909375,1.07971354 14.9528906,0.722057292 14.7385156,0.253385417 L0.13203125,0.253385417 L0.13203125,47.4815104 C5.77578125,51.3807292 12.6226563,53.6666667 20,53.6666667 C20.0601563,53.6666667 20.1197656,53.6633854 20.1804688,53.6633854 C20.1832031,53.6497135 20.1892188,53.6354948 20.1919531,53.6218229 L20.1919531,1.08080729 C18.8154688,1.07588542 17.4395313,1.07807292 16.0630469,1.07916667 L16.0630469,1.07916667 Z"/><path id="Shape" fill="#545454" d="M25.2078906,0.253385417 C25.0082813,0.754322917 24.55875,1.14041667 23.85,1.12401042 C22.5828906,1.09393229 21.3152344,1.08354167 20.048125,1.07916667 L20.048125,53.6655729 C27.494375,53.6557292 34.3899219,51.3233073 40.0539063,47.3557292 L40.0539063,0.253385417 L25.2078906,0.253385417 L25.2078906,0.253385417 Z"/><rect id="Rectangle-path" width="39.922" height="1.094" x=".132" y="13.925" fill="#545454"/><rect id="Rectangle-path" width="39.922" height="1.094" x=".132" y="27.597" fill="#545454"/><rect id="Rectangle-path" width="39.922" height="1.094" x=".132" y="41.269" fill="#545454"/><path id="Shape" fill="#19D77A" d="M25.2084375,0.253385417 C25.1865625,3.15455729 22.8273437,5.50010417 19.9179687,5.50010417 C17.0080469,5.50010417 14.649375,3.15455729 14.6275,0.253385417 L25.2084375,0.253385417 L25.2084375,0.253385417 Z"/><ellipse id="Oval" cx="34.209" cy="5.686" fill="#19D77A" rx="1.152" ry="1.152"/></g></g></g></g></g></g></g></svg>