<svg xmlns="http://www.w3.org/2000/svg" xmlns:xlink="http://www.w3.org/1999/xlink" width="70" height="70" version="1.1" viewBox="0 0 70 70"><title>dial</title><desc>Created with Sketch.</desc><g id="SPD3.0" fill="none" fill-rule="evenodd" stroke="none" stroke-width="1"><g id="001-FTUX" transform="translate(-1073.000000, -253.000000)"><g id="Steps" transform="translate(323.000000, 244.000000)"><g id="dial" transform="translate(750.000000, 9.000000)"><circle id="Oval" cx="35" cy="35" r="35" fill="#E4E8DC"/><path id="Shape" fill="#686868" d="M63.7951563,33.90625 L63.791875,33.90625 C63.6529688,28.6141406 62.0336719,23.6375781 59.3332031,19.3861719 C58.4494531,20.0079688 57.4689063,20.5061719 56.3986719,20.8638281 C55.1703906,21.2739844 54.1685156,21.3084375 53.2377344,21.0989844 C56.09625,24.9030469 57.7959375,29.6220313 57.7959375,34.7364063 C57.7959375,41.9611719 54.4813281,48.601875 48.7030469,52.955 C47.3763281,53.9541406 47.1110938,55.8397656 48.1102344,57.1670313 C48.7019531,57.9517969 49.6026563,58.3646875 50.5153906,58.3646875 C51.1448438,58.3646875 51.7803125,58.1678125 52.3228125,57.7592969 C59.6241406,52.2588281 63.8115625,43.82875 63.8115625,34.6975781 C63.8115625,34.4454688 63.8028125,34.453125 63.7951563,33.90625 L63.7951563,33.90625 Z"/><path id="Shape" fill="#19D77A" d="M19.3063281,58.2290625 C18.6675781,58.2290625 18.0239062,58.0267188 17.4775781,57.6078125 C10.303125,52.1040625 6.1884375,43.7675 6.1884375,34.7364063 C6.1884375,18.8491406 19.1132812,5.92429688 35,5.92429688 C44.5861719,5.92429688 53.5166406,10.6728125 58.8891406,18.6260156 C59.8188281,20.0025 59.4567969,21.8722656 58.0803125,22.8019531 C56.7038281,23.7321875 54.8346094,23.3701563 53.904375,21.993125 C49.6524219,15.6980469 42.5846094,11.9399219 35,11.9399219 C22.430625,11.9399219 12.2040625,22.1659375 12.2040625,34.7364063 C12.2040625,41.8824219 15.4607031,48.4788281 21.1389062,52.8346875 C22.456875,53.8458594 22.7057031,55.7342188 21.6945312,57.0521875 C21.1028125,57.8232813 20.2097656,58.2290625 19.3063281,58.2290625 L19.3063281,58.2290625 Z"/><circle id="Oval" cx="35" cy="35" r="17.984" fill="#FFF"/><circle id="Oval" cx="45.375" cy="29.055" r="2.359" fill="#EBEBEB"/></g></g></g></g></svg>